<svg width="1920" height="418" viewBox="0 0 1920 418" fill="none" xmlns="http://www.w3.org/2000/svg">
<mask id="mask0_101_12" style="mask-type:luminance" maskUnits="userSpaceOnUse" x="-347" y="0" width="2624" height="418">
<path d="M2277 0H-347V418H2277V0Z" fill="white"/>
</mask>
<g mask="url(#mask0_101_12)">
<g opacity="0.8">
<path d="M-346.872 264.75L-347 263.46L-160.268 246.4L-43.4958 85.77L-42.9828 86.02L134.259 169.1L236.026 157.68L287.39 0L519.715 0.77002L560.178 78.46L674.898 184.11L878.11 131.38L975.452 100.14L1132.88 47.21L1133.07 47.28L1367 120.6L1417.98 122.46L1560.59 63L1638.89 38.1001L1639.15 38.3L1818.51 182.06L1990.17 219.07L2276.55 109.89L2277 111.11L1990.23 220.35H1990.04L1817.93 183.28L1817.8 183.21L1638.63 39.52L1561.04 64.21L1418.24 123.74H1418.11L1366.81 121.88L1366.74 121.82L1132.94 48.5601L975.837 101.36L878.495 132.6L674.577 185.52L674.321 185.26L559.152 79.22L559.088 79.1599L518.946 2.05005L288.352 1.28003L236.987 158.83L236.539 158.9L134.067 170.45L133.874 170.32L-43.0469 87.3701L-159.562 247.62L-159.883 247.68L-346.872 264.75Z" fill="url(#paint0_linear_101_12)"/>
<path d="M-346.872 272L-347 270.78L-161.55 254.55L-42.3416 101.55L-41.8286 101.74L134.9 180.9L235.961 170L291.622 19.8201H292.071L522.28 20.5901L564.346 94.5601L679.964 195.21L882.022 144.98L978.787 115.21L1135.51 64.8601L1135.7 64.9199L1368.41 134.71L1419.01 136.45L1561.04 79.8701L1638.95 56.1299L1639.21 56.3201L1819.34 193.28L1989.91 228.44L2275.14 124.51L2275.52 125.73L1990.04 229.78H1989.85L1818.76 194.44L1818.7 194.37L1638.7 57.54L1561.49 81.02L1419.2 137.73H1419.07L1368.15 135.93H1368.09L1135.51 66.2L979.172 116.43L882.343 146.2L679.579 196.62L679.323 196.36L563.32 95.3899L563.256 95.26L521.511 21.8799L292.52 21.1101L236.923 171.22L134.708 182.19L-41.8927 103.15L-160.909 255.77H-161.165L-346.872 272Z" fill="url(#paint1_linear_101_12)"/>
<path d="M-346.872 279.31L-347 278.03L-162.833 262.63L-41.1232 117.33L-40.6743 117.52L135.542 192.71L235.961 182.38L295.854 39.71H296.303L524.845 40.4099L568.514 110.66L684.966 206.24L885.87 158.51L982.186 130.29L1138.07 82.4299L1138.27 82.5L1369.76 148.76L1420.03 150.5L1561.56 96.6699L1639.02 74.1599L1639.28 74.3501L1820.17 204.45L1989.66 237.87L2273.67 139.14L2274.11 140.3L1989.78 239.21L1989.59 239.15L1819.6 205.66L1819.53 205.54L1638.76 75.5701L1561.94 97.8899L1420.22 151.78H1420.1L1369.57 150.05H1369.5L1138.07 83.78L982.506 131.51L886.19 159.8L684.645 207.65L684.388 207.46L567.488 111.49V111.43L524.14 41.7L296.752 40.99L236.859 183.53L236.474 183.6L135.349 193.99L135.221 193.92L-40.7384 118.87L-162.191 263.85L-162.448 263.91L-346.872 279.31Z" fill="url(#paint2_linear_101_12)"/>
<path d="M-346.872 286.62L-347 285.34L-164.115 270.71L-39.9689 133.11L-39.52 133.24L136.183 204.51L235.897 194.69L300.087 59.53L527.346 60.24L572.618 126.76L689.967 217.34L889.717 172.11L985.52 145.36L1140.64 100.01L1140.83 100.07L1371.1 162.88L1420.99 164.48L1562.01 113.55L1639.08 92.1799L1639.34 92.3799L1820.94 215.61L1989.46 247.3L2272.19 153.7L2272.64 154.92L1989.53 248.58H1989.4L1820.49 216.83L1820.36 216.76L1638.83 93.5901L1562.39 114.76L1421.19 165.76H1421.12L1370.91 164.16H1370.85L1140.64 101.36L985.905 146.58L890.038 173.4L689.647 218.75L689.454 218.56L571.721 127.66L571.657 127.53L526.705 61.52L300.92 60.8101L236.731 195.91H236.41L136.055 205.79L135.862 205.73L-39.5841 134.59L-163.538 272H-163.795L-346.872 286.62Z" fill="url(#paint3_linear_101_12)"/>
<path d="M-346.872 293.93L-347 292.65L-165.398 278.86L-38.7505 148.83L-38.3658 149.02L136.888 216.31L235.897 207.01L304.319 79.3501H304.704L529.911 79.99L530.103 80.25L576.786 142.86L694.969 228.44L893.565 185.71L988.854 160.44L1143.2 117.65H1143.4L1372.45 176.99L1422.02 178.53L1562.45 130.35L1639.15 110.21L1639.4 110.4L1821.78 226.77L1989.21 256.73L2270.78 168.33L2271.16 169.55L1989.33 258.01H1989.14L1821.33 227.99L1821.2 227.92L1638.95 111.62L1562.84 131.57L1422.21 179.81H1422.08L1372.26 178.27L1143.2 118.93L989.239 161.72L893.885 187L694.713 229.78L575.825 143.7L529.27 81.28L305.088 80.6399L236.667 208.23L236.346 208.29L136.696 217.6L136.568 217.53L-38.4299 150.37L-164.821 280.08H-165.077L-346.872 293.93Z" fill="url(#paint4_linear_101_12)"/>
<path d="M-346.872 301.25L-347 299.96L-166.744 286.94L-37.5963 164.61L137.529 228.05L235.833 219.33L308.551 99.24H308.936L532.476 99.8201L580.955 158.96L700.035 239.54L897.412 199.31L992.253 175.51L1145.83 135.23H1145.96L1373.86 191.1L1423.05 192.51L1562.97 147.22L1639.21 128.24L1639.4 128.43L1822.61 237.93L1989.01 266.09L2269.3 182.96L2269.69 184.17L1989.08 267.44H1988.95L1822.16 239.15L1822.03 239.09L1639.02 129.65L1563.29 148.44L1423.17 193.8L1373.61 192.39L1145.83 136.57L992.574 176.8L897.669 200.53L699.714 240.88L699.522 240.75L580.057 159.93L579.993 159.86L531.835 101.1L309.321 100.52L236.603 220.55L236.282 220.61L137.337 229.4L137.209 229.34L-37.2757 166.08L-166.167 288.23H-166.424L-346.872 301.25Z" fill="url(#paint5_linear_101_12)"/>
<path d="M-346.872 308.5L-347 307.21L-168.027 295.09L-36.3779 180.39L-36.0573 180.52L138.171 239.86L235.833 231.71L312.783 119.06H313.168L534.977 119.64L585.123 175.06L705.037 250.57L901.26 212.91L995.588 190.59L1148.4 152.8L1148.53 152.87L1375.21 205.22L1424.01 206.5L1563.42 164.03L1639.28 146.33L1639.47 146.39L1823.44 249.09L1988.76 275.52L2267.89 197.58L2268.21 198.8L1988.82 276.87L1988.69 276.81L1822.99 250.38L1822.93 250.31L1639.08 147.67L1563.8 165.31L1424.2 207.85H1424.07L1375.02 206.5L1374.95 206.43L1148.4 154.15L995.908 191.87L901.516 214.13L704.78 251.92L704.524 251.79L584.289 176.03L534.4 120.92L313.489 120.35L236.539 232.93H236.218L137.978 241.14H137.85L-36.1214 181.86L-167.514 296.31H-167.706L-346.872 308.5Z" fill="url(#paint6_linear_101_12)"/>
<path d="M-346.872 315.81L-347 314.53L-169.309 303.17L-35.2237 196.17L-34.903 196.23L138.812 251.66L235.769 244.03L317.08 138.88H317.336L537.542 139.46L589.291 191.17L710.038 261.67L905.107 226.51L998.986 205.66L1150.96 170.38L1151.09 170.45L1376.56 219.33L1425.03 220.55L1563.93 180.9L1639.34 164.35L1639.53 164.42L1824.28 260.32L1988.5 284.95L2266.42 212.14L2266.74 213.43L1988.63 286.24H1988.5L1823.83 261.54L1823.76 261.47L1639.15 165.7L1564.25 182.12L1425.23 221.83L1376.36 220.55L1150.96 171.73L999.243 206.95L905.364 227.73L709.782 263.01L709.59 262.89L588.457 192.19L588.393 192.13L537.029 140.74L317.657 140.17L236.474 245.24L236.154 245.31L138.684 252.94H138.555L-34.9672 197.58L-168.796 304.45H-168.989L-346.872 315.81Z" fill="url(#paint7_linear_101_12)"/>
<path d="M-346.872 323.12L-347 321.84L-170.592 311.32L-34.0694 211.89L-33.7487 212.02L139.453 263.46L235.769 256.34L321.312 158.77L540.107 159.22L540.235 159.41L593.395 207.27L715.04 272.76L908.955 240.05L1002.32 220.74L1153.53 188.02H1153.66L1377.9 233.38L1426.06 234.53L1564.38 197.77L1639.4 182.38L1639.6 182.44L1825.11 271.48L1988.31 294.38L2264.94 226.77L2265.27 228.05L1988.37 295.67H1988.24L1824.73 272.7H1824.6L1639.21 183.73L1564.7 198.99L1426.19 235.81H1426.12L1377.77 234.66L1153.53 189.31L1002.58 222.02L909.211 241.33L714.848 274.11L714.656 273.98L592.69 208.36L592.625 208.29L539.594 160.5L321.889 160.05L236.41 257.63H236.154L139.325 264.75H139.197L-33.8129 213.3L-170.143 312.54H-170.335L-346.872 323.12Z" fill="url(#paint8_linear_101_12)"/>
<path d="M-346.936 330.44L-347 329.15L-171.874 319.4L-32.851 227.67L-32.5945 227.73L140.094 275.27L235.769 268.72L325.544 178.59H325.801L542.608 179.04L597.563 223.37L720.042 283.8L912.802 253.65L1005.66 235.81L1156.09 205.6H1156.22L1379.25 247.49L1427.02 248.58L1564.89 214.58L1639.47 200.4L1639.66 200.47L1825.88 282.64L1988.05 303.75L2263.53 241.4L2263.79 242.61L1988.12 305.1H1987.99L1825.56 283.86H1825.49L1639.28 201.75L1565.15 215.86L1427.21 249.86L1379.12 248.77L1156.16 206.88L1005.91 237.1L913.059 254.93L719.85 285.15L719.657 285.08L596.858 224.46L542.159 180.33L326.057 179.88L236.346 269.94H236.09L139.966 276.55L139.902 276.49L-32.6587 229.08L-171.425 320.68H-171.618L-346.936 330.44Z" fill="url(#paint9_linear_101_12)"/>
<path d="M-346.936 337.75L-347 336.47L-173.157 327.48L-31.6968 243.45L-31.4403 243.51L140.736 287.01L235.705 281.04L329.777 198.48H329.969L545.173 198.86L545.301 198.99L601.731 239.47L725.108 294.9L916.714 267.25L1009.05 250.89L1158.72 223.18L1158.79 223.24L1380.66 261.6L1428.05 262.57L1565.34 231.45L1639.53 218.43L1639.66 218.49L1826.71 293.81L1987.86 313.18L2262.06 256.02L2262.32 257.24L1987.92 314.46H1987.8L1826.39 295.09L1826.33 295.02L1639.34 219.78L1565.6 232.67L1428.18 263.85H1428.11L1380.47 262.89L1158.72 224.52L1009.25 252.17L916.906 268.53L724.916 296.24L724.723 296.18L601.09 240.63L544.724 200.15L330.225 199.76L236.218 282.26L140.607 288.35L140.543 288.29L-31.5044 244.8L-172.772 328.77L-346.936 337.75Z" fill="url(#paint10_linear_101_12)"/>
<path d="M-346.936 345L-347 343.71L-174.439 335.63L-30.4784 259.17L-30.286 259.23L141.377 298.81L235.705 293.36L334.009 218.3H334.201L547.674 218.69L547.866 218.75L605.835 255.57L730.11 305.99L920.561 280.85L1012.39 265.97L1161.29 240.82H1161.42L1382.01 275.72L1429.07 276.61L1565.85 248.26L1639.6 236.46L1639.72 236.52L1827.55 304.97L1987.6 322.61L2260.65 270.58L2260.84 271.87L1987.67 323.89H1987.54L1827.23 306.25H1827.16L1639.47 237.8L1566.04 249.54L1429.2 277.9H1429.14L1381.81 277L1161.29 242.1L1012.58 267.25L920.754 282.13L729.917 307.28L729.789 307.21L605.258 256.73H605.194L547.353 219.97L334.394 219.58L236.154 294.64L141.313 300.09H141.185L-30.3501 260.58L-174.119 336.91H-174.247L-346.936 345Z" fill="url(#paint11_linear_101_12)"/>
<path d="M-346.936 352.31L-347 351.03L-175.722 343.71L-29.3242 274.95L-29.1318 275.01L142.082 310.61L235.641 305.74L338.241 238.12H338.433L550.239 238.51L550.367 238.57L610.003 271.67L735.111 317.03L924.409 294.45L1015.79 281.04L1163.85 258.4H1163.98L1383.35 289.83L1430.1 290.6L1566.3 265.13L1639.66 254.48L1639.79 254.55L1828.38 316.19L1987.41 332.04L2259.17 285.21L2259.37 286.49L1987.41 333.32H1987.35L1828.12 317.41H1828L1639.53 255.77L1566.49 266.41L1430.16 291.88H1430.1L1383.22 291.11L1163.85 259.68L1015.92 282.32L924.537 295.73L734.983 318.38L734.855 318.31L609.49 272.89L549.918 239.79L338.626 239.41L236.09 306.96H235.897L141.954 311.9H141.89L-29.1318 276.29L-175.401 345H-175.529L-346.936 352.31Z" fill="url(#paint12_linear_101_12)"/>
<path d="M-346.936 359.62V358.34L-177.004 351.86L-28.1058 290.73L142.724 322.42L235.641 318.05L342.473 258.01H342.602L552.804 258.27L614.107 287.84L740.113 328.13L928.256 308.05L1019.12 296.12L1166.42 275.97H1166.55L1384.7 303.94L1431.06 304.65L1566.81 282L1639.66 272.51L1639.85 272.57L1829.15 327.36L1987.15 341.41L2257.7 299.84L2257.89 301.12L1987.22 342.75L1987.09 342.69L1828.96 328.64L1828.89 328.58L1639.6 273.79L1567.01 283.22L1431.19 305.93H1431.13L1384.57 305.22L1166.42 277.26L1019.31 297.4L928.385 309.33L739.985 329.41H739.857L613.658 288.99H613.594L552.483 259.55L342.794 259.29L236.026 319.34H235.833L142.595 323.7H142.531L-27.9776 292.01L-176.748 353.14H-176.876L-346.936 359.62Z" fill="url(#paint13_linear_101_12)"/>
<path d="M-346.936 366.94V365.65L-178.287 359.94L-26.9516 306.44L-26.8233 306.51L143.365 334.22L235.641 330.37L346.706 277.83H346.834L555.305 278.09L555.433 278.15L618.275 303.94L745.179 339.22L932.104 321.58L1022.46 311.19L1169.05 293.61H1169.11L1386.11 318.05L1432.09 318.63L1567.26 298.81L1639.72 290.53L1639.85 290.6L1829.98 338.52L1986.9 350.84L2256.29 314.46L2256.48 315.75L1986.96 352.12H1986.9L1829.79 339.8H1829.73L1639.66 291.82L1567.46 300.09L1432.15 319.92H1432.09L1386.05 319.34L1169.05 294.9L1022.65 312.47L932.232 322.87L745.051 340.51H744.923L617.891 305.16L617.827 305.1L555.048 279.37L346.962 279.12L235.961 331.65H235.833L143.301 335.5H143.237L-26.8233 307.79L-178.03 361.23H-178.159L-346.936 366.94Z" fill="url(#paint14_linear_101_12)"/>
<path d="M-346.936 374.25V372.97L-179.569 368.09L-25.7973 322.22H-25.6049L144.006 346.02L235.577 342.69L350.938 297.66H351.066L557.87 297.91H557.934L622.444 320.04L750.181 350.32L935.951 335.18L1025.85 326.27L1171.61 311.19H1171.68L1387.46 332.1L1433.11 332.68L1567.78 315.68L1639.79 308.56L1639.92 308.62L1830.82 349.68L1986.71 360.27L2254.81 329.09L2255.01 330.31L1986.71 361.55H1986.64L1830.62 350.96H1830.56L1639.72 309.84L1567.9 316.96L1433.18 333.96H1433.11L1387.39 333.39L1171.61 312.47L1025.98 327.55L936.08 336.47L750.053 351.6L749.988 351.54L622.123 321.26L557.677 299.19L351.194 298.94L235.833 343.97H235.769L143.942 347.31L143.878 347.24L-25.6691 323.51L-179.377 369.37H-179.441L-346.936 374.25Z" fill="url(#paint15_linear_101_12)"/>
<path d="M-346.936 381.5V380.22L-180.852 376.17L-24.5789 338.01H-24.4507L144.647 357.76L235.577 355.07L355.17 317.54H355.234L560.37 317.73H560.499L626.612 336.14L755.183 361.36L939.799 348.78L1029.19 341.34L1174.18 328.77H1174.24L1388.8 346.22L1434.08 346.67L1568.22 332.49L1639.85 326.59H1639.98L1831.65 360.84L1986.45 369.7L2253.4 343.65L2253.53 344.93L1986.51 370.98H1986.45L1831.46 362.13L1639.79 327.87L1568.35 333.77L1434.14 347.95L1388.74 347.5L1174.18 330.05L1029.32 342.62L939.927 350.07L755.118 362.64H754.99L626.291 337.43L560.242 319.02L355.362 318.82L235.769 356.35H235.705L144.583 359.05H144.519L-24.5148 339.29L-180.724 377.46H-180.788L-346.936 381.5Z" fill="url(#paint16_linear_101_12)"/>
<path d="M-346.936 388.81V387.53L-182.134 384.32L-23.4247 353.72H-23.2964L145.289 369.57L235.513 367.39L359.402 337.36H359.466L562.935 337.49L563 337.56L630.716 352.25L760.184 372.45L943.646 362.38L1032.59 356.42L1176.74 346.34H1176.81L1390.15 360.33L1435.17 360.71L1568.74 349.36L1639.92 344.61H1639.98L1832.48 372.07L1986.26 379.06L2251.93 358.28L2252.06 359.56L1986.26 380.34H1986.19L1832.36 373.35L1639.92 345.9L1568.8 350.64L1435.17 362L1390.15 361.61L1176.74 347.63L1032.65 357.7L943.775 363.67L760.12 373.74H760.056L630.523 353.53L562.807 338.78L359.531 338.65L235.705 368.67H235.641L145.224 370.85L-23.3606 355L-182.006 385.6H-182.07L-346.936 388.81Z" fill="url(#paint17_linear_101_12)"/>
<path d="M-346.936 396.12V394.84L-183.417 392.4L-22.2063 369.5H-22.1422L145.994 381.37L235.513 379.7L363.635 357.19H363.699L565.501 357.31H565.565L634.884 368.41L765.186 383.49L947.558 375.98L1035.92 371.49L1179.31 363.99H1179.37L1391.56 374.44L1436.13 374.7L1569.19 366.23L1639.98 362.64H1640.05L1833.32 383.23L1986 388.49L2250.52 372.9L2250.58 374.19L1986.06 389.77L1833.19 384.51L1639.98 363.92L1569.25 367.51L1436.19 375.98L1391.5 375.73L1179.37 365.27L1035.99 372.77L947.558 377.26L765.186 384.83L765.122 384.77L634.692 369.63L565.372 358.6L363.763 358.47L235.641 380.99H235.577L145.93 382.65L-22.2063 370.79L-183.353 393.69L-346.936 396.12Z" fill="url(#paint18_linear_101_12)"/>
<path d="M-346.936 403.44V402.16L-184.699 400.49L-21.0521 385.22H-20.9879L146.635 393.17L235.513 392.08L367.867 377.07H367.931L568.001 377.14H568.065L638.988 384.51L770.252 394.59L951.405 389.58L1039.26 386.57L1181.87 381.56L1392.91 388.56L1437.15 388.68L1569.7 383.04L1640.04 380.66H1640.11L1834.09 394.39L1985.81 397.92L2249.04 387.53L2249.11 388.81L1985.81 399.2L1834.02 395.68L1640.04 381.95L1569.7 384.32L1437.15 389.97L1392.84 389.84L1181.87 382.85L1039.32 387.85L951.405 390.86L770.188 395.87L638.86 385.8L567.937 378.42L367.931 378.36L235.513 393.37L146.571 394.46L-21.0521 386.5L-184.635 401.77L-346.936 403.44Z" fill="url(#paint19_linear_101_12)"/>
<path d="M-346.936 410.75V409.47L-185.982 408.63L-19.8978 401L147.276 404.98L235.448 404.4L372.099 396.89L570.566 396.96L643.156 400.62L775.254 405.68L955.253 403.18L1042.66 401.64L1184.5 399.14L1394.25 402.67L1438.11 402.73L1570.15 399.91L1640.11 398.69L1834.92 405.55L1985.55 407.35L2247.57 402.16L2247.63 403.44L1985.55 408.63L1834.86 406.84L1640.11 399.97L1570.15 401.19L1438.18 404.02L1394.25 403.95L1184.5 400.42L1042.66 402.92L955.253 404.46L775.254 406.97L643.092 401.9L570.502 398.24L372.099 398.18L235.513 405.68L147.212 406.26L-19.8978 402.28L-185.982 409.92L-346.936 410.75Z" fill="url(#paint20_linear_101_12)"/>
<path d="M2246.16 416.72H-346.936V418H2246.16V416.72Z" fill="url(#paint21_linear_101_12)"/>
</g>
</g>
<defs>
<linearGradient id="paint0_linear_101_12" x1="-347" y1="0" x2="2281.55" y2="57.79" gradientUnits="userSpaceOnUse">
<stop stop-color="#DD5AFE"/>
<stop offset="1" stop-color="#6366F1"/>
</linearGradient>
<linearGradient id="paint1_linear_101_12" x1="-347" y1="19.8201" x2="2279.94" y2="80.4201" gradientUnits="userSpaceOnUse">
<stop stop-color="#DD5AFE"/>
<stop offset="1" stop-color="#6366F1"/>
</linearGradient>
<linearGradient id="paint2_linear_101_12" x1="-347" y1="39.71" x2="2278.38" y2="103.42" gradientUnits="userSpaceOnUse">
<stop stop-color="#DD5AFE"/>
<stop offset="1" stop-color="#6366F1"/>
</linearGradient>
<linearGradient id="paint3_linear_101_12" x1="-347" y1="59.53" x2="2276.73" y2="126.67" gradientUnits="userSpaceOnUse">
<stop stop-color="#DD5AFE"/>
<stop offset="1" stop-color="#6366F1"/>
</linearGradient>
<linearGradient id="paint4_linear_101_12" x1="-347" y1="79.3501" x2="2275.05" y2="150.32" gradientUnits="userSpaceOnUse">
<stop stop-color="#DD5AFE"/>
<stop offset="1" stop-color="#6366F1"/>
</linearGradient>
<linearGradient id="paint5_linear_101_12" x1="-347" y1="99.24" x2="2273.33" y2="174.53" gradientUnits="userSpaceOnUse">
<stop stop-color="#DD5AFE"/>
<stop offset="1" stop-color="#6366F1"/>
</linearGradient>
<linearGradient id="paint6_linear_101_12" x1="-347" y1="119.06" x2="2271.56" y2="199.25" gradientUnits="userSpaceOnUse">
<stop stop-color="#DD5AFE"/>
<stop offset="1" stop-color="#6366F1"/>
</linearGradient>
<linearGradient id="paint7_linear_101_12" x1="-347" y1="138.88" x2="2269.73" y2="224.63" gradientUnits="userSpaceOnUse">
<stop stop-color="#DD5AFE"/>
<stop offset="1" stop-color="#6366F1"/>
</linearGradient>
<linearGradient id="paint8_linear_101_12" x1="-347" y1="158.77" x2="2267.81" y2="250.96" gradientUnits="userSpaceOnUse">
<stop stop-color="#DD5AFE"/>
<stop offset="1" stop-color="#6366F1"/>
</linearGradient>
<linearGradient id="paint9_linear_101_12" x1="-347" y1="178.59" x2="2265.78" y2="278.24" gradientUnits="userSpaceOnUse">
<stop stop-color="#DD5AFE"/>
<stop offset="1" stop-color="#6366F1"/>
</linearGradient>
<linearGradient id="paint10_linear_101_12" x1="-347" y1="198.48" x2="2263.59" y2="306.97" gradientUnits="userSpaceOnUse">
<stop stop-color="#DD5AFE"/>
<stop offset="1" stop-color="#6366F1"/>
</linearGradient>
<linearGradient id="paint11_linear_101_12" x1="-347" y1="218.3" x2="2261.19" y2="337.38" gradientUnits="userSpaceOnUse">
<stop stop-color="#DD5AFE"/>
<stop offset="1" stop-color="#6366F1"/>
</linearGradient>
<linearGradient id="paint12_linear_101_12" x1="-347" y1="238.12" x2="2258.47" y2="370.04" gradientUnits="userSpaceOnUse">
<stop stop-color="#DD5AFE"/>
<stop offset="1" stop-color="#6366F1"/>
</linearGradient>
<linearGradient id="paint13_linear_101_12" x1="-346.936" y1="258.01" x2="2255.25" y2="405.98" gradientUnits="userSpaceOnUse">
<stop stop-color="#DD5AFE"/>
<stop offset="1" stop-color="#6366F1"/>
</linearGradient>
<linearGradient id="paint14_linear_101_12" x1="-346.936" y1="277.83" x2="2251.34" y2="446.23" gradientUnits="userSpaceOnUse">
<stop stop-color="#DD5AFE"/>
<stop offset="1" stop-color="#6366F1"/>
</linearGradient>
<linearGradient id="paint15_linear_101_12" x1="-346.936" y1="297.66" x2="2246.05" y2="493.04" gradientUnits="userSpaceOnUse">
<stop stop-color="#DD5AFE"/>
<stop offset="1" stop-color="#6366F1"/>
</linearGradient>
<linearGradient id="paint16_linear_101_12" x1="-346.936" y1="317.54" x2="2238.27" y2="550.7" gradientUnits="userSpaceOnUse">
<stop stop-color="#DD5AFE"/>
<stop offset="1" stop-color="#6366F1"/>
</linearGradient>
<linearGradient id="paint17_linear_101_12" x1="-346.936" y1="337.36" x2="2225.52" y2="625.62" gradientUnits="userSpaceOnUse">
<stop stop-color="#DD5AFE"/>
<stop offset="1" stop-color="#6366F1"/>
</linearGradient>
<linearGradient id="paint18_linear_101_12" x1="-346.936" y1="357.19" x2="2200.57" y2="734.128" gradientUnits="userSpaceOnUse">
<stop stop-color="#DD5AFE"/>
<stop offset="1" stop-color="#6366F1"/>
</linearGradient>
<linearGradient id="paint19_linear_101_12" x1="-346.936" y1="377.07" x2="2136.4" y2="919.452" gradientUnits="userSpaceOnUse">
<stop stop-color="#DD5AFE"/>
<stop offset="1" stop-color="#6366F1"/>
</linearGradient>
<linearGradient id="paint20_linear_101_12" x1="-346.936" y1="396.89" x2="1870.8" y2="1318.01" gradientUnits="userSpaceOnUse">
<stop stop-color="#DD5AFE"/>
<stop offset="1" stop-color="#6366F1"/>
</linearGradient>
<linearGradient id="paint21_linear_101_12" x1="-346.936" y1="416.72" x2="-223.756" y2="968.941" gradientUnits="userSpaceOnUse">
<stop stop-color="#DD5AFE"/>
<stop offset="1" stop-color="#6366F1"/>
</linearGradient>
</defs>
</svg>
