<svg width="1094" height="292" viewBox="0 0 1094 292" fill="none" xmlns="http://www.w3.org/2000/svg">
<g opacity="0.6">
<path d="M490.129 201.612L502.186 107.273L514.144 198.228L490.129 201.612ZM521.417 74.398L485.253 79.491L457.251 267.121L482 263.638L486.678 227.033L517.496 222.692L522.043 258.001L548.735 254.245L521.417 74.398Z" fill="#3A3841"/>
<path d="M594.304 142.854L594.403 90.361L606.534 88.652C615.997 87.324 620.115 92.515 620.09 105.638L620.065 119.81C620.041 134.51 613.963 140.089 604.014 141.492L594.304 142.854ZM607.308 62.299L567.76 67.87L567.422 251.604L594.114 247.849L594.263 169.109L603.478 167.813C615.618 166.105 620.214 170.966 620.181 188.026L620.115 221.619C620.09 236.574 621.062 239.331 622.503 243.846L649.681 240.016C647.021 233.57 646.791 227.041 646.807 218.119L646.865 185.831C646.906 165.098 642.557 152.065 629.224 149.482V148.954C641.124 142.029 646.733 129.17 646.766 110.269L646.791 98.986C646.84 70.635 634.972 58.403 607.308 62.299Z" fill="#3A3841"/>
<path d="M698.157 128.22L698.256 75.727L710.396 74.019C719.859 72.69 723.969 77.881 723.944 91.005L723.919 105.176C723.894 119.876 717.816 125.455 707.876 126.858L698.157 128.22ZM711.17 47.673L671.613 53.244L671.276 236.978L697.968 233.223L698.116 154.483L707.34 153.187C719.472 151.479 724.076 156.34 724.043 173.401L723.977 206.993C723.952 221.949 724.916 224.705 726.365 229.22L753.543 225.39C750.883 218.944 750.653 212.416 750.669 203.493L750.727 171.205C750.768 150.472 746.419 137.44 733.086 134.856V134.328C744.986 127.403 750.587 114.552 750.62 95.643L750.644 84.36C750.694 56.009 738.834 43.777 711.17 47.673Z" fill="#3A3841"/>
<path d="M802.168 34.855L775.476 38.619L775.138 222.345L801.83 218.59L802.168 34.855Z" fill="#3A3841"/>
<path d="M907.97 19.957L883.46 23.407L865.47 170.264L848.03 28.401L821.094 32.189L846.47 212.3L881.91 207.307L907.97 19.957Z" fill="#3A3841"/>
<path d="M945.34 137.497L957.41 43.158L969.36 134.113L945.34 137.497ZM976.63 10.284L940.47 15.377L912.47 203.007L937.22 199.524L941.9 162.919L972.72 158.577L977.26 193.886L1003.95 190.131L976.63 10.284Z" fill="#3A3841"/>
<path d="M1049.67 0L1022.98 3.755L1022.63 187.49L1093.25 177.544L1093.3 151.297L1049.37 157.479L1049.67 0Z" fill="#3A3841"/>
</g>
<path d="M465.877 225.863L477.935 131.524L489.893 222.479L465.877 225.863ZM497.165 98.65L461.002 103.742L433 291.372L457.749 287.889L462.427 251.284L493.245 246.943L497.791 282.252L524.484 278.497L497.165 98.65Z" fill="white"/>
<path d="M570.052 167.105L570.151 114.612L582.283 112.904C591.746 111.575 595.863 116.766 595.839 129.89L595.814 144.061C595.789 158.761 589.711 164.34 579.762 165.744L570.052 167.105ZM583.057 86.55L543.508 92.121L543.171 275.855L569.863 272.1L570.011 193.36L579.227 192.064C591.367 190.356 595.962 195.217 595.929 212.278L595.863 245.87C595.839 260.825 596.811 263.582 598.252 268.097L625.43 264.267C622.77 257.821 622.539 251.293 622.556 242.37L622.613 210.082C622.655 189.349 618.306 176.316 604.972 173.733V173.205C616.873 166.28 622.482 153.421 622.515 134.52L622.539 123.237C622.589 94.886 610.721 82.654 583.057 86.55Z" fill="white"/>
<path d="M673.906 152.471L674.005 99.978L686.145 98.27C695.608 96.941 699.717 102.132 699.693 115.256L699.668 129.427C699.643 144.127 693.565 149.706 683.624 151.11L673.906 152.471ZM686.919 71.924L647.362 77.495L647.024 261.23L673.717 257.474L673.865 178.735L683.089 177.439C695.221 175.73 699.824 180.592 699.791 197.652L699.726 231.244C699.701 246.2 700.664 248.956 702.114 253.471L729.292 249.642C726.632 243.195 726.401 236.667 726.418 227.745L726.475 195.456C726.517 174.723 722.168 161.691 708.834 159.107V158.579C720.735 151.654 726.335 138.803 726.368 119.894L726.393 108.612C726.443 80.26 714.583 68.028 686.919 71.924Z" fill="white"/>
<path d="M777.917 59.107L751.224 62.87L750.887 246.596L777.579 242.841L777.917 59.107Z" fill="white"/>
<path d="M883.71 44.209L859.2 47.659L841.22 194.516L823.77 52.652L796.843 56.44L822.22 236.551L857.66 231.558L883.71 44.209Z" fill="white"/>
<path d="M921.09 161.749L933.15 67.41L945.11 158.365L921.09 161.749ZM952.38 34.535L916.22 39.628L888.22 227.258L912.97 223.775L917.65 187.17L948.46 182.829L953.01 218.138L979.7 214.382L952.38 34.535Z" fill="white"/>
<path d="M1025.42 24.251L998.73 28.007L998.38 211.741L1069 201.795L1069.05 175.549L1025.12 181.731L1025.42 24.251Z" fill="white"/>
<path d="M369.258 202.062L264.728 216.785C262.147 217.146 259.79 219.065 258.649 221.734L248.712 244.842C246.485 250.022 249.752 255.257 254.771 254.549L369.197 238.431C371.805 238.063 374.196 236.103 375.323 233.394L380.125 221.863C381.008 219.753 381.008 217.432 380.139 215.567L375.378 205.384C374.25 202.981 371.866 201.694 369.258 202.062Z" fill="url(#paint0_linear_125_5)"/>
<path d="M270.114 222.932C266.773 223.401 264.993 225.811 264.986 229.527C264.979 232.23 265.944 234.047 268.81 236.382C271.052 238.192 271.799 239.302 271.799 241.255C271.799 243.012 271.079 243.719 269.985 243.876C268.898 244.033 268.212 243.522 268.212 241.834V240.214L264.966 240.67V242.018C264.959 245.802 266.643 247.722 270.012 247.252C273.388 246.776 275.195 244.366 275.201 240.513C275.208 237.58 274.278 235.783 271.412 233.448C269.17 231.637 268.389 230.535 268.389 228.813C268.389 227.186 269.055 226.458 270.141 226.301C271.235 226.144 271.86 226.703 271.853 228.391V229.609L275.093 229.153V228.173C275.1 224.388 273.449 222.462 270.114 222.932Z" fill="white"/>
<path d="M288.494 220.679L285.064 221.162L285.043 230.78L281.362 231.297L281.375 221.679L277.945 222.162L277.898 245.789L281.335 245.305L281.355 234.673L285.036 234.156L285.016 244.788L288.453 244.305L288.494 220.679Z" fill="white"/>
<path d="M296.752 240.098C295.659 240.255 294.973 239.71 294.98 238.015L295.007 225.123C295.007 223.435 295.7 222.693 296.793 222.544C297.887 222.387 298.573 222.932 298.566 224.626L298.539 237.518C298.532 239.207 297.846 239.942 296.752 240.098ZM296.793 219.174C293.424 219.651 291.577 222.067 291.57 225.845L291.55 238.267C291.543 242.052 293.384 243.951 296.752 243.474C300.128 242.998 301.969 240.581 301.976 236.797L301.996 224.375C302.003 220.597 300.162 218.698 296.793 219.174Z" fill="white"/>
<path d="M308.51 228.486L308.523 221.23L310.147 220.999C311.24 220.842 311.831 221.305 311.831 222.986L311.824 225.79C311.824 227.479 311.226 228.105 310.133 228.261L308.51 228.486ZM310.147 217.622L305.093 218.337L305.052 241.963L308.482 241.48L308.503 231.862L310.126 231.631C313.556 231.147 315.247 228.853 315.254 225.069L315.261 222.741C315.261 218.963 313.583 217.139 310.147 217.622Z" fill="white"/>
<path d="M334.421 214.205L331.365 214.634L331.338 228.785L327.901 215.124L323.656 215.723L323.615 239.349L326.672 238.921L326.706 221.672L330.917 238.322L334.381 237.832L334.421 214.205Z" fill="white"/>
<path d="M342.681 233.632C341.587 233.788 340.901 233.244 340.908 231.549L340.935 218.657C340.935 216.969 341.628 216.227 342.721 216.077C343.815 215.921 344.501 216.465 344.494 218.16L344.467 231.052C344.467 232.74 343.774 233.475 342.681 233.632ZM342.721 212.701C339.353 213.177 337.505 215.594 337.498 219.372L337.478 231.794C337.471 235.579 339.312 237.478 342.681 237.001C346.056 236.525 347.897 234.108 347.904 230.324L347.924 217.901C347.931 214.13 346.097 212.225 342.721 212.701Z" fill="white"/>
<path d="M366.656 209.665L363.688 210.087L362.099 228.799L360.482 210.537L356.733 211.067L355.042 229.793L353.521 211.517L350.213 211.98L352.386 235.3L356.937 234.66L358.56 218.194L360.122 234.21L364.395 233.605L366.656 209.665Z" fill="white"/>
<path d="M362.139 0.19398L21.504 48.168C9.794 49.815 0.284997 61.42 0.257997 74.094L1.0865e-06 213.81C-0.0199989 226.477 9.455 235.408 21.157 233.76L361.793 185.787C369.971 184.636 377.428 178.503 380.96 170.022L411.844 95.828C414.601 89.205 414.615 81.956 411.878 76.109L381.259 10.581C377.754 3.08597 370.31 -0.95702 362.139 0.19398Z" fill="url(#paint1_linear_125_5)"/>
<path d="M131.522 49.243L111.906 52.007L111.736 142.707L89.689 55.138L62.473 58.97L62.195 210.495L81.81 207.732L82.014 97.115L109.026 203.899L131.236 200.768L131.522 49.243Z" fill="white"/>
<path d="M212.959 37.774L152.93 46.228L152.645 197.753L212.68 189.299L212.721 167.653L174.699 173.01L174.787 126.466L205.005 122.212L205.046 100.566L174.828 104.82L174.903 64.769L212.925 59.419L212.959 37.774Z" fill="white"/>
<path d="M331.032 21.145L312.021 23.82L301.792 143.857L291.407 26.727L267.397 30.103L256.564 150.228L246.783 33.009L225.565 35.997L239.495 185.521L268.715 181.41L279.113 75.851L289.131 178.531L316.544 174.671L331.032 21.145Z" fill="white"/>
<path d="M392.785 76.49C385.477 77.518 379.534 84.761 379.52 92.67C379.507 100.58 385.423 106.154 392.731 105.126C400.046 104.099 405.982 96.856 405.996 88.947C406.009 81.031 400.094 75.456 392.785 76.49Z" fill="white"/>
<path d="M412.781 37.985C410.628 38.291 408.489 38.842 406.383 39.632C404.148 40.476 402.838 43.165 403.544 45.411C404.067 47.072 405.561 47.991 407.198 47.759C407.436 47.725 407.68 47.664 407.925 47.582C408.849 47.256 409.793 46.99 410.757 46.779C411.328 46.657 411.891 46.554 412.455 46.473C424.233 44.812 434.101 52.803 434.883 65.008C435.698 77.784 426.223 90.349 413.712 93.065C413.148 93.187 412.584 93.29 412.027 93.364C407.823 93.957 403.856 93.317 400.46 91.697C399.448 91.214 398.321 91.057 397.18 91.22C396.433 91.329 395.679 91.567 394.952 91.942C392.405 93.262 391.828 96.958 393.926 98.483C398.036 101.465 402.946 103.098 408.156 103.221C409.65 103.255 411.158 103.166 412.659 102.955C416.388 102.431 420.103 101.158 423.608 99.184C428.518 96.414 432.838 92.364 436.139 87.449C439.44 82.528 441.6 76.919 442.401 71.168C443.203 65.416 442.619 59.732 440.71 54.695C438.802 49.658 435.623 45.431 431.52 42.45C427.411 39.469 422.501 37.835 417.291 37.719C415.79 37.685 414.282 37.774 412.781 37.985Z" fill="url(#paint2_linear_125_5)"/>
<defs>
<linearGradient id="paint0_linear_125_5" x1="240.175" y1="196.619" x2="401.649" y2="207.1" gradientUnits="userSpaceOnUse">
<stop stop-color="#DA458F"/>
<stop offset="1" stop-color="#DA34DD"/>
</linearGradient>
<linearGradient id="paint1_linear_125_5" x1="-24.392" y1="-23.928" x2="480.02" y2="-0.976018" gradientUnits="userSpaceOnUse">
<stop stop-color="#DA458F"/>
<stop offset="1" stop-color="#DA34DD"/>
</linearGradient>
<linearGradient id="paint2_linear_125_5" x1="389.693" y1="31.012" x2="450.855" y2="32.215" gradientUnits="userSpaceOnUse">
<stop stop-color="#DA458F"/>
<stop offset="1" stop-color="#DA34DD"/>
</linearGradient>
</defs>
</svg>
